<?xml version="1.0" encoding="UTF-8"?><!DOCTYPE svg PUBLIC "-//W3C//DTD SVG 1.1//EN" "http://www.w3.org/Graphics/SVG/1.1/DTD/svg11.dtd"><svg xmlns="http://www.w3.org/2000/svg" xmlns:xlink="http://www.w3.org/1999/xlink"><defs>
    <style>
      .cls-1 {
        fill: #0188f5;
        fill-rule: evenodd;
        filter: url(#filter);
      }
    </style>
    <filter id="filter" x="669" y="4336" width="32" height="32" filterUnits="userSpaceOnUse">
      <feFlood result="flood" flood-color="#ebebeb"/>
      <feComposite result="composite" operator="in" in2="SourceGraphic"/>
      <feBlend result="blend" in2="SourceGraphic"/>
    </filter>
  
    <style>
      .cls-1 {
        fill: #4463b1;
        fill-rule: evenodd;
        filter: url(#filter);
      }
    </style>
    <filter id="filter" x="841" y="4337" width="32" height="32" filterUnits="userSpaceOnUse">
      <feFlood result="flood" flood-color="#ebebeb"/>
      <feComposite result="composite" operator="in" in2="SourceGraphic"/>
      <feBlend result="blend" in2="SourceGraphic"/>
    </filter>
  
    <style>
      .cls-1 {
        fill: #005a87;
        fill-rule: evenodd;
        filter: url(#filter);
      }
    </style>
    <filter id="filter" x="726" y="4336" width="32" height="32" filterUnits="userSpaceOnUse">
      <feFlood result="flood" flood-color="#ebebeb"/>
      <feComposite result="composite" operator="in" in2="SourceGraphic"/>
      <feBlend result="blend" in2="SourceGraphic"/>
    </filter>
  
    <style>
      .cls-1 {
        fill: #f6f6f6;
        fill-rule: evenodd;
      }
    </style>
  
    <style>
      .cls-1 {
        fill: #3aa0ef;
        fill-rule: evenodd;
        filter: url(#filter);
      }
    </style>
    <filter id="filter" x="918.875" y="4732" width="46.125" height="52.78" filterUnits="userSpaceOnUse">
      <feFlood result="flood" flood-color="#9f9acf"/>
      <feComposite result="composite" operator="in" in2="SourceGraphic"/>
      <feBlend result="blend" in2="SourceGraphic"/>
    </filter>
  
    <style>
      .cls-1 {
        fill: #e6e6e6;
        fill-rule: evenodd;
        filter: url(#filter);
      }
    </style>
    <filter id="filter" x="162" y="4175" width="22" height="38" filterUnits="userSpaceOnUse">
      <feFlood result="flood" flood-color="#665f60"/>
      <feComposite result="composite" operator="in" in2="SourceGraphic"/>
      <feBlend result="blend" in2="SourceGraphic"/>
    </filter>
  
    <style>
      .cls-1 {
        fill: #e6e6e6;
        fill-rule: evenodd;
        filter: url(#filter);
      }
    </style>
    <filter id="filter" x="1410" y="4175" width="22" height="38" filterUnits="userSpaceOnUse">
      <feFlood result="flood" flood-color="#665f60"/>
      <feComposite result="composite" operator="in" in2="SourceGraphic"/>
      <feBlend result="blend" in2="SourceGraphic"/>
    </filter>
  
    <style>
      .cls-1 {
        fill: #4e9edc;
        fill-rule: evenodd;
        filter: url(#filter);
      }
    </style>
    <filter id="filter" x="898" y="4337" width="32" height="32" filterUnits="userSpaceOnUse">
      <feFlood result="flood" flood-color="#ebebeb"/>
      <feComposite result="composite" operator="in" in2="SourceGraphic"/>
      <feBlend result="blend" in2="SourceGraphic"/>
    </filter>
  </defs><symbol id="behance" viewBox="0 0 32 32">
  
  <path id="behance.svg" class="cls-1" d="M685,4336a16,16,0,1,1-16,16A16,16,0,0,1,685,4336Zm-10,10h5.793c2.344,0,3.929.79,3.929,2.97a2.558,2.558,0,0,1-1.673,2.44,2.879,2.879,0,0,1,2.259,2.97c0,2.37-2.121,3.39-4.344,3.39H675V4346Zm2.475,4.71h2.972a1.4,1.4,0,0,0,1.655-1.39c0-1.12-.9-1.35-1.861-1.35h-2.766v2.74Zm0,5.16H680.6c1.069,0,1.922-.33,1.922-1.54s-0.715-1.67-1.87-1.67h-3.179v3.21Zm10.924-2.04c0.069,1.47.827,2.42,2.188,2.42a2.315,2.315,0,0,0,2.035-1.3h2.154a4.554,4.554,0,0,1-8.851-1.41,4.374,4.374,0,0,1,4.576-4.47c3.034,0,4.5,2.16,4.327,4.76H688.4Zm3.982-1.52c-0.224-1.18-.76-1.48-1.949-1.48-1.551,0-2,.82-2.033,1.48h3.982Zm0.774-3.95h-4.931v-1.57h4.931v1.57Z" transform="translate(-669 -4336)"/>
</symbol><symbol id="facebook" viewBox="0 0 32 32">
  
  <path id="facebook.svg" class="cls-1" d="M857,4337a16,16,0,1,1-16,16A16,16,0,0,1,857,4337Zm6,6v4h-2a1.17,1.17,0,0,0-1,1v2h3l-1,4h-2v9h-4v-9h-2v-4h2v-3s-0.748-4,3.126-4H863Z" transform="translate(-841 -4337)"/>
</symbol><symbol id="linked-in" viewBox="0 0 32 32">
  
  <path id="linked-in.svg" class="cls-1" d="M742,4336a16,16,0,1,1-16,16A16,16,0,0,1,742,4336Zm-8.516,7.46a1.5,1.5,0,0,0-.476,1.11,1.561,1.561,0,0,0,.481,1.15,1.619,1.619,0,0,0,1.164.47,1.571,1.571,0,0,0,1.14-.46,1.571,1.571,0,0,0,0-2.26,1.606,1.606,0,0,0-1.154-.47A1.583,1.583,0,0,0,733.484,4343.46ZM733,4359h3.275v-12.01H733V4359Zm5.73,0h3.258v-4.36a11.65,11.65,0,0,1,.163-2.5,3.244,3.244,0,0,1,1.121-1.74,3.055,3.055,0,0,1,1.936-.63,2.676,2.676,0,0,1,1.461.38,1.988,1.988,0,0,1,.829,1.11,11.424,11.424,0,0,1,.238,2.93V4359H751v-7.56a4,4,0,0,0-1.351-3.22,5.009,5.009,0,0,0-3.5-1.28,5.212,5.212,0,0,0-1.866.34,10.214,10.214,0,0,0-2.274,1.31v-1.6H738.73V4359Z" transform="translate(-726 -4336)"/>
</symbol><symbol id="Logo" viewBox="0 0 53.531 72">
  
  <path id="Logo.svg" class="cls-1" d="M274.714,88.981A46.989,46.989,0,0,1,271.3,103.7c-0.623,1.416-1.756,2.767-2.279,4.3h-0.228v-1.132c0.428-.665.219-1.575,0.456-2.491,1.128-4.357,1.213-10.17-.684-13.811-3.24-6.221-9.728-4.129-16.181-6.793a12.425,12.425,0,0,1-5.7-5.434l-1.368-3.849A14.911,14.911,0,0,1,246,66.339c3.107-8.131,10.872-11.709,20.284-7.245V58.415c-0.807-1.1-.545-2.733-0.912-4.3-0.985-4.219-1.744-18.067,2.963-18.113,1.277,0.926,3.731.885,3.875,2.944a1.666,1.666,0,0,0-.456,1.358h0.228V40.075c0.981-1.03,1.25-3.371,2.963-3.623,1.368,1.22,3.683,1.463,4.1,3.623a17.49,17.49,0,0,0-2.735,5.887h0.456c1.428-1.877,7.312-7.251,10.028-6.793a14.113,14.113,0,0,1,2.051,4.3c-1.435.51-2.095,1.9-3.191,2.717-4,3-7.231,7.374-9.8,11.774h0.684c1.569-1.22,7.973-1.811,10.712-1.132,7.222,1.792,9.252,4.271,10.939,11.547a13.388,13.388,0,0,1,.228,4.755c-2.183,9.442-6.79,14.209-16.409,16.3C279.436,89.993,276.873,89.1,274.714,88.981Z" transform="translate(-245 -36)"/>
</symbol><symbol id="Pin" viewBox="0 0 46.125 52.78">
  
  <path id="Pin.svg" class="cls-1" d="M953.284,4734.95c11.2,6.09,15.041,19.57,8.573,30.11-2.272,3.7-8.175,7.4-15.055,10.27-10.089,3.26-27.92,9.46-27.92,9.46v-28.92s0.553-9.83,2.406-12.85C927.756,4732.48,942.081,4728.87,953.284,4734.95Zm-11.342,6.39c6.373,0,11.54,4.86,11.54,10.86s-5.167,10.85-11.54,10.85-11.539-4.86-11.539-10.85S935.569,4741.34,941.942,4741.34Z" transform="translate(-918.875 -4732)"/>
</symbol><symbol id="team-arrow-left" viewBox="0 0 22 38">
  
  <path id="team-arrow-left.svg" class="cls-1" d="M183.877,4175.53a1.125,1.125,0,0,1-.359,1.46l-20.057,17.87a0.94,0.94,0,0,1-1.338-.39,1.121,1.121,0,0,1,.359-1.46l20.057-17.87A0.941,0.941,0,0,1,183.877,4175.53Zm0,36.94a1.123,1.123,0,0,0-.359-1.46l-20.057-17.87a0.94,0.94,0,0,0-1.338.39,1.124,1.124,0,0,0,.359,1.46l20.057,17.87A0.941,0.941,0,0,0,183.877,4212.47Z" transform="translate(-162 -4175)"/>
</symbol><symbol id="team-arrow-right" viewBox="0 0 22 38">
  
  <path id="team-arrow-right.svg" class="cls-1" d="M1410.12,4175.53a1.124,1.124,0,0,0,.36,1.46l20.06,17.87a0.942,0.942,0,0,0,1.34-.39,1.122,1.122,0,0,0-.36-1.46l-20.06-17.87A0.942,0.942,0,0,0,1410.12,4175.53Zm0,36.94a1.122,1.122,0,0,1,.36-1.46l20.06-17.87a0.942,0.942,0,0,1,1.34.39,1.124,1.124,0,0,1-.36,1.46l-20.06,17.87A0.942,0.942,0,0,1,1410.12,4212.47Z" transform="translate(-1410 -4175)"/>
</symbol><symbol id="twitter" viewBox="0 0 32 32">
  
  <path id="twitter.svg" class="cls-1" d="M914,4337a16,16,0,1,1-16,16A16,16,0,0,1,914,4337Zm9.9,10.2a6.738,6.738,0,0,1-2.121.64,4.006,4.006,0,0,0,1.623-2.23,7.055,7.055,0,0,1-2.345.98,3.537,3.537,0,0,0-2.7-1.28,3.879,3.879,0,0,0-3.693,4.04,4.417,4.417,0,0,0,.1.92,10.235,10.235,0,0,1-7.613-4.22,4.331,4.331,0,0,0-.5,2.03,4.14,4.14,0,0,0,1.643,3.36,3.452,3.452,0,0,1-1.672-.5c0,0.01,0,.03,0,0.05a3.964,3.964,0,0,0,2.963,3.96,3.483,3.483,0,0,1-.973.14,3.2,3.2,0,0,1-.695-0.07,3.753,3.753,0,0,0,3.45,2.8,6.984,6.984,0,0,1-4.587,1.73,8.526,8.526,0,0,1-.881-0.05,9.857,9.857,0,0,0,5.662,1.81c6.793,0,10.508-6.15,10.508-11.49,0-.18,0-0.35-0.011-0.52a7.818,7.818,0,0,0,1.843-2.1" transform="translate(-898 -4337)"/>
</symbol></svg>