<?xml version="1.0" encoding="utf-8"?>
<!-- Generator: Adobe Illustrator 17.1.0, SVG Export Plug-In . SVG Version: 6.00 Build 0)  -->
<!DOCTYPE svg PUBLIC "-//W3C//DTD SVG 1.1//EN" "http://www.w3.org/Graphics/SVG/1.1/DTD/svg11.dtd">
<svg version="1.1" id="Layer_1" xmlns="http://www.w3.org/2000/svg" xmlns:xlink="http://www.w3.org/1999/xlink" x="0px" y="0px"
	 viewBox="0 0 960 560" enable-background="new 0 0 960 560" xml:space="preserve">
<g>
	<path d="M241.4,142.5c-4.5,9.9-1.9,18.3,1.9,26.9c1.5,3.4,1.8,7.7,1.6,11.6c-0.2,5.1-2.7,6.2-7.4,4.1c-6.7-3-9.7-8.7-11.3-15.4
		C223.5,157.9,229.7,146.1,241.4,142.5z"/>
	<path d="M249.6,184.7c2.2-8-0.1-14.6-3.2-21.2c-2.5-5.2-3.6-10.7-1.3-16.4c1.5-3.8,3.7-4.3,6.9-1.9
		C266,155.6,262.3,179,249.6,184.7z"/>
</g>
</svg>
