<?xml version="1.0" encoding="utf-8"?>
<!-- Generator: Adobe Illustrator 17.1.0, SVG Export Plug-In . SVG Version: 6.00 Build 0)  -->
<!DOCTYPE svg PUBLIC "-//W3C//DTD SVG 1.1//EN" "http://www.w3.org/Graphics/SVG/1.1/DTD/svg11.dtd">
<svg version="1.1" id="Layer_1" xmlns="http://www.w3.org/2000/svg" xmlns:xlink="http://www.w3.org/1999/xlink" x="0px" y="0px"
	 viewBox="0 0 960 560" enable-background="new 0 0 960 560" xml:space="preserve">
<g>
	<path fill="#BCBCBC" d="M126.7,41.6c10.4,6,11.2,13.7,2.9,20.7c-8,6.7-8.7,10.9-3.8,22.5c-4.5,0.3-7.2-2.4-9.7-5.2
		c-6.8-7.7-5.2-18.7,3.7-23.8C125.1,52.7,127.6,48.4,126.7,41.6z"/>
	<path fill="#BDBDBD" d="M142.1,84.8c-5.3-1.2-7.1-4.8-8.1-9c-1-4-0.4-7.7,3.1-10.3c3.2-2.4,6.5-4.6,7-9.1c0.3-1.9,1.5-1.2,2.5-0.4
		c3.4,2.5,4.1,6.6,1.6,10.1c-0.5,0.7-1.1,1.3-1.6,1.9C140,75,140,75,142.1,84.8z"/>
	<path fill="#BEBEBE" d="M154.3,84.2c-5.1-3.9-5.4-7.5-1.5-11.3c0.7-0.7,1.4-1.5,2.2-2c1.1-0.7,0.8-3.8,2.8-2.4
		c2.1,1.4,1.7,4,0.2,5.7C155.4,77.1,153.3,80,154.3,84.2z"/>
</g>
<g>
	<path fill="#BCBCBC" d="M202.8,127.5c0,1.3,0,2.7,0,4c-1.4,4.6-1.2,9.5-1.6,14.2c-0.9,10.8-6.8,16.8-17.6,17.2
		c-4.5,0.2-9,0-13.4,0.1c-3.4,0.1-6.8,0.9-8.9,3.7c-4.9,6.6-11.5,9.8-19.4,10.7c-11,0-22,0-33,0c-10.5-0.2-16.7-6.6-21.6-14.8
		c-10.2-17-17-35.1-18.8-55c-0.4-4.9,0.3-5.9,4.8-6.7c35.1,0,70.2,0,105.2,0c3.8,0.1,6.7,1.1,7.3,5.6c0.3,2.1,1.8,3.7,3.8,4.2
		C198.7,112.6,202.4,118.7,202.8,127.5z"/>
</g>
</svg>
